<?xml version="1.0" encoding="iso-8859-1"?>
<!-- Uploaded to: SVG Repo, www.svgrepo.com, Generator: SVG Repo Mixer Tools -->
<svg fill="#000000" height="800px" width="800px" version="1.1" id="Layer_1" xmlns="http://www.w3.org/2000/svg" xmlns:xlink="http://www.w3.org/1999/xlink" 
	 viewBox="0 0 512 512" xml:space="preserve" style="background:none;fill:#ab897044">
<g>
	<g>
		<path d="M450.556,94.591c-19.133-24.63-44.762-38.193-72.168-38.193c-12.007,0-23.635,2.592-34.69,7.699
			c-7.931-17.474-19.032-32.371-32.464-43.438C294.828,7.144,275.729,0,256.002,0c-19.727,0-38.826,7.144-55.231,20.659
			c-13.421,11.056-24.513,25.938-32.442,43.391c-10.96-5.03-22.665-7.653-34.714-7.653c-27.407,0-53.039,13.564-72.17,38.194
			c-18.645,24.003-28.913,55.797-28.913,89.526s10.269,65.523,28.913,89.526c15.866,20.425,36.204,33.232,58.316,37.011
			l-14.409,24.958c-1.5,2.596-1.5,5.797,0,8.393c1.5,2.596,4.269,4.197,7.268,4.197h23.93c-1.694,5.15-5.015,8.766-9.114,13.223
			c-6.579,7.154-14.767,16.058-14.767,32.979c0,16.924,8.188,25.828,14.767,32.982c6,6.526,10.337,11.241,10.337,21.619
			c0,10.378-4.336,15.094-10.337,21.62c-6.58,7.155-14.767,16.06-14.767,32.982c0,4.635,3.757,8.393,8.393,8.393
			c4.636,0,8.393-3.758,8.393-8.393c0-10.378,4.336-15.094,10.337-21.62c6.58-7.155,14.767-16.06,14.767-32.982
			c0-16.923-8.187-25.827-14.767-32.982c-6-6.526-10.337-11.241-10.337-21.62c0-10.376,4.336-15.091,10.337-21.616
			c5.394-5.865,11.861-12.915,14.02-24.586h0.797c2.999,0,5.769-1.6,7.268-4.197s1.5-5.797,0-8.393l-14.409-24.958
			c22.113-3.78,42.451-16.586,58.317-37.011c6.108-7.863,11.296-16.572,15.539-25.901c6.741,3.112,13.694,5.294,20.818,6.516
			l-14.406,24.952c-1.5,2.596-1.5,5.796,0,8.393c1.5,2.596,4.269,4.197,7.268,4.197h23.931c-1.694,5.15-5.015,8.766-9.114,13.223
			c-6.579,7.154-14.767,16.058-14.767,32.979c0,16.924,8.187,25.828,14.767,32.982c6,6.526,10.337,11.242,10.337,21.62
			s-4.336,15.094-10.337,21.62c-6.58,7.155-14.767,16.06-14.767,32.982c0,4.635,3.757,8.393,8.393,8.393
			c4.636,0,8.393-3.758,8.393-8.393c0-10.378,4.336-15.094,10.337-21.62c6.58-7.155,14.767-16.06,14.767-32.982
			c0-16.923-8.187-25.828-14.767-32.982c-6-6.526-10.337-11.242-10.337-21.62c0-10.376,4.336-15.091,10.337-21.616
			c5.394-5.865,11.861-12.915,14.02-24.586h0.797c2.999,0,5.769-1.6,7.268-4.197c1.5-2.596,1.5-5.797,0-8.393l-14.406-24.952
			c7.132-1.223,14.091-3.408,20.835-6.523c7.936,17.474,19.039,32.371,32.472,43.438c12.53,10.322,26.631,16.915,41.38,19.46
			l-14.421,24.98c-1.5,2.596-1.5,5.797,0,8.393c1.5,2.596,4.269,4.197,7.268,4.197h25.987c-1.694,5.15-5.015,8.766-9.114,13.223
			c-6.579,7.154-14.767,16.058-14.767,32.979c0,16.924,8.188,25.828,14.767,32.982c6,6.526,10.337,11.241,10.337,21.619
			c0,10.378-4.336,15.094-10.337,21.62c-6.58,7.155-14.767,16.06-14.767,32.982c0,4.635,3.757,8.393,8.393,8.393
			c4.636,0,8.393-3.758,8.393-8.393c0-10.378,4.336-15.094,10.337-21.62c6.58-7.155,14.767-16.06,14.767-32.982
			c0-16.923-8.187-25.827-14.767-32.982c-6-6.526-10.337-11.241-10.337-21.62c0-10.376,4.336-15.091,10.337-21.616
			c5.41-5.883,11.898-12.959,14.037-24.693c2.492-0.384,4.709-1.867,5.992-4.089c1.5-2.596,1.5-5.797,0-8.393l-14.411-24.963
			c22.112-3.779,42.45-16.585,58.317-37.011c18.644-24.003,28.912-55.796,28.912-89.523
			C479.467,150.384,469.2,118.594,450.556,94.591z M127.159,331.414l6.457-11.185l6.458,11.185H127.159z M133.616,295.05
			c-46.482,0-84.297-49.764-84.297-110.934S87.134,73.183,133.616,73.183c46.482,0,84.299,49.764,84.299,110.934
			S180.098,295.05,133.616,295.05z M249.544,275.012l6.458-11.185l6.458,11.185H249.544z M290.608,228.826
			c-10.901,6.516-22.545,9.82-34.606,9.82c-9.88,0-19.48-2.221-28.621-6.605c4.797-15.03,7.32-31.239,7.32-47.925
			c0-33.728-10.269-65.522-28.913-89.525c-6.855-8.825-14.548-16.221-22.855-22.089c6.915-15.787,16.683-29.143,28.513-38.887
			c13.363-11.009,28.771-16.829,44.557-16.829c15.786,0,31.193,5.819,44.557,16.829c13.359,11.006,24.1,26.615,31.06,45.138
			c5.758,15.312,8.676,31.786,8.676,48.963C340.295,171.159,320.795,210.844,290.608,228.826z M371.93,331.414l6.457-11.185
			l6.458,11.185H371.93z M378.387,295.044c-15.78,0-31.184-5.819-44.548-16.829c-11.842-9.755-21.62-23.13-28.542-38.939
			c31.666-22.348,51.783-65.227,51.783-111.559c0-16.642-2.469-32.724-7.336-47.918c9.148-4.39,18.755-6.615,28.642-6.615
			c46.48,0,84.294,49.763,84.294,110.93S424.868,295.044,378.387,295.044z"/>
	</g>
</g>
<g>
	<g>
		<path d="M160.937,95.647c-3.973-2.386-9.129-1.101-11.517,2.873c-2.387,3.974-1.1,9.129,2.873,11.516
			c20.481,12.302,34.241,42.072,34.241,74.079c0,4.635,3.757,8.393,8.393,8.393c4.636,0,8.393-3.758,8.393-8.393
			C203.32,146.427,186.287,110.874,160.937,95.647z"/>
	</g>
</g>
<g>
	<g>
		<path d="M139.553,90.231c-0.392-0.38-0.817-0.739-1.276-1.041c-0.459-0.302-0.94-0.56-1.455-0.772
			c-0.504-0.213-1.03-0.369-1.567-0.481c-2.729-0.548-5.618,0.347-7.576,2.294c-0.38,0.392-0.739,0.817-1.042,1.276
			c-0.302,0.459-0.56,0.951-0.771,1.455c-0.213,0.504-0.369,1.03-0.481,1.567c-0.113,0.548-0.168,1.097-0.168,1.645
			c0,2.205,0.906,4.364,2.462,5.931c1.566,1.567,3.726,2.462,5.931,2.462c0.548,0,1.108-0.056,1.645-0.168
			c0.537-0.112,1.063-0.269,1.567-0.481c0.515-0.201,0.996-0.47,1.455-0.772c0.459-0.302,0.884-0.649,1.276-1.041
			c1.557-1.567,2.451-3.727,2.451-5.931C142.004,93.957,141.108,91.797,139.553,90.231z"/>
	</g>
</g>
<g>
	<g>
		<path d="M283.324,39.246c-3.972-2.386-9.128-1.101-11.517,2.873c-2.388,3.974-1.101,9.13,2.873,11.517
			c20.48,12.302,34.24,42.073,34.24,74.079c0,4.635,3.757,8.393,8.393,8.393c4.636,0,8.393-3.758,8.393-8.393
			C325.706,90.026,308.674,54.473,283.324,39.246z"/>
	</g>
</g>
<g>
	<g>
		<path d="M264.227,38.127c-0.101-0.537-0.269-1.063-0.481-1.567c-0.201-0.504-0.459-0.996-0.772-1.455
			c-0.302-0.459-0.649-0.884-1.041-1.276c-0.38-0.38-0.817-0.739-1.276-1.041c-0.448-0.302-0.941-0.56-1.444-0.772
			c-0.515-0.213-1.042-0.369-1.578-0.481c-1.074-0.213-2.193-0.213-3.279,0c-0.537,0.112-1.063,0.269-1.567,0.481
			c-0.504,0.213-0.996,0.47-1.444,0.772c-0.47,0.302-0.895,0.66-1.276,1.041c-0.393,0.392-0.739,0.817-1.052,1.276
			c-0.302,0.459-0.56,0.951-0.772,1.455c-0.201,0.504-0.368,1.03-0.47,1.567c-0.112,0.548-0.167,1.097-0.167,1.645
			c0,0.548,0.056,1.097,0.167,1.634c0.102,0.537,0.27,1.063,0.47,1.578c0.213,0.504,0.471,0.985,0.772,1.444
			c0.313,0.459,0.66,0.895,1.052,1.276c0.38,0.392,0.806,0.739,1.276,1.041c0.448,0.302,0.94,0.571,1.444,0.772
			c0.504,0.213,1.03,0.369,1.567,0.481c0.547,0.112,1.096,0.168,1.645,0.168c0.549,0,1.096-0.056,1.634-0.168
			c0.536-0.112,1.063-0.269,1.578-0.481c0.502-0.201,0.996-0.47,1.444-0.772c0.458-0.302,0.895-0.649,1.276-1.041
			c0.392-0.38,0.739-0.817,1.041-1.276c0.313-0.459,0.572-0.94,0.772-1.444c0.211-0.515,0.38-1.041,0.481-1.578
			c0.113-0.537,0.168-1.086,0.168-1.634S264.339,38.675,264.227,38.127z"/>
	</g>
</g>
<g>
	<g>
		<path d="M405.709,95.647c-3.974-2.386-9.129-1.101-11.517,2.873c-2.387,3.974-1.1,9.129,2.873,11.516
			c20.481,12.302,34.241,42.072,34.241,74.079c0,4.635,3.757,8.393,8.393,8.393c4.636,0,8.393-3.758,8.393-8.393
			C448.092,146.427,431.06,110.874,405.709,95.647z"/>
	</g>
</g>
<g>
	<g>
		<path d="M386.62,94.528c-0.111-0.537-0.267-1.063-0.48-1.567s-0.47-0.996-0.772-1.455c-0.302-0.459-0.66-0.884-1.041-1.276
			c-0.393-0.38-0.817-0.739-1.287-1.041c-0.447-0.302-0.94-0.56-1.444-0.772c-0.502-0.201-1.03-0.369-1.566-0.47
			c-1.087-0.224-2.206-0.224-3.28,0c-0.536,0.101-1.062,0.269-1.577,0.47c-0.504,0.213-0.986,0.47-1.444,0.772
			c-0.459,0.302-0.896,0.66-1.277,1.041c-0.392,0.392-0.739,0.817-1.041,1.276c-0.303,0.459-0.571,0.951-0.772,1.455
			c-0.211,0.504-0.369,1.03-0.481,1.567c-0.112,0.548-0.168,1.097-0.168,1.645c0,2.205,0.896,4.376,2.462,5.931
			c0.38,0.392,0.817,0.739,1.277,1.041c0.458,0.302,0.94,0.571,1.444,0.772c0.515,0.213,1.041,0.369,1.577,0.481
			c0.537,0.112,1.087,0.168,1.634,0.168c0.548,0,1.097-0.056,1.646-0.168c0.536-0.112,1.063-0.269,1.566-0.481
			c0.504-0.201,0.997-0.47,1.444-0.772c0.47-0.302,0.895-0.649,1.287-1.041c1.556-1.556,2.45-3.727,2.45-5.931
			C386.777,95.625,386.721,95.076,386.62,94.528z"/>
	</g>
</g>
</svg>