<?xml version="1.0" encoding="iso-8859-1"?>
<!-- Generator: Adobe Illustrator 19.0.0, SVG Export Plug-In . SVG Version: 6.00 Build 0)  -->
<svg version="1.1" id="Layer_1" xmlns="http://www.w3.org/2000/svg" xmlns:xlink="http://www.w3.org/1999/xlink" x="0px" y="0px"
	 viewBox="0 0 512 512" style="background:white;fill:#729da1" xml:space="preserve">
<g>
	<g>
		<path d="M495.304,411.615h-22.261V227.962c0-27.618-22.469-50.087-50.087-50.087H372.87v-5.565
			c0-27.618-22.469-50.087-50.087-50.087h-20.484c25.381-21.432,42.623-39.5,42.623-66.546c0-31.102-23.196-55.466-52.807-55.466
			c-15.724,0-27.596,6.689-36.113,15.388c-8.518-8.698-20.39-15.388-36.114-15.388c-29.611,0-52.807,24.363-52.807,55.466
			c0,27.046,17.242,45.114,42.623,66.546h-20.486c-27.618,0-50.087,22.469-50.087,50.087v5.565H89.044
			c-27.618,0-50.087,22.469-50.087,50.087v183.652H16.696C7.475,411.615,0,419.09,0,428.31c0,46.03,37.448,83.478,83.478,83.478
			h345.043c46.03,0,83.478-37.448,83.478-83.478C512,419.09,504.525,411.615,495.304,411.615z M200.47,55.678
			c0-10.97,6.67-22.075,19.417-22.075c13.972,0,19.603,17.358,20.051,18.816c1.944,7.31,8.492,12.403,16.062,12.403
			c7.57,0,14.118-5.092,16.062-12.403c0.447-1.459,6.079-18.816,20.052-18.816c12.747,0,19.416,11.105,19.416,22.075
			c0,15.147-14.245,27.534-43.88,51.903c-3.65,3.002-7.562,6.219-11.65,9.623c-4.088-3.405-8.001-6.621-11.65-9.623
			C214.715,83.211,200.47,70.825,200.47,55.678z M172.522,172.31c0-9.206,7.49-16.696,16.696-16.696c0,0,128.623,0,133.565,0
			c9.206,0,16.696,7.49,16.696,16.696v5.565H172.522V172.31z M72.348,227.962c0-9.206,7.49-16.696,16.696-16.696
			c8.622,0,325.357,0,333.913,0c9.206,0,16.696,7.49,16.696,16.696v33.391c0,9.206-7.49,16.696-16.696,16.696
			c-9.206,0-16.696-7.49-16.696-16.696c0-9.22-7.475-16.696-16.696-16.696c-9.22,0-16.696,7.475-16.696,16.696
			c0,9.206-7.49,16.696-16.696,16.696c-9.206,0-16.696-7.49-16.696-16.696c0-9.22-7.475-16.696-16.696-16.696
			s-16.696,7.475-16.696,16.696c0,9.206-7.49,16.696-16.696,16.696s-16.696-7.49-16.696-16.696c0-9.22-7.475-16.696-16.696-16.696
			c-9.22,0-16.696,7.475-16.696,16.696c0,9.206-7.49,16.696-16.696,16.696s-16.696-7.49-16.696-16.696
			c0-9.22-7.475-16.696-16.696-16.696s-16.696,7.475-16.696,16.696c0,9.206-7.49,16.696-16.696,16.696
			c-9.206,0-16.696-7.49-16.696-16.696c0-9.22-7.475-16.696-16.696-16.696c-9.22,0-16.696,7.475-16.696,16.696
			c0,9.206-7.49,16.696-16.696,16.696c-9.206,0-16.696-7.49-16.696-16.696V227.962z M72.348,308.569
			c5.226,1.853,10.842,2.872,16.696,2.872c12.817,0,24.524-4.838,33.391-12.784c8.868,7.946,20.575,12.784,33.391,12.784
			c12.817,0,24.524-4.838,33.391-12.784c8.868,7.946,20.575,12.784,33.391,12.784s24.524-4.838,33.391-12.784
			c8.868,7.946,20.575,12.784,33.391,12.784s24.524-4.838,33.391-12.784c8.868,7.946,20.575,12.784,33.391,12.784
			s24.524-4.838,33.391-12.784c8.868,7.946,20.575,12.784,33.391,12.784c5.853,0,11.47-1.018,16.696-2.872v36.263H72.348V308.569z
			 M72.348,378.223h367.304v33.391H72.348V378.223z M428.522,478.397H83.478c-21.768,0-40.336-13.956-47.226-33.391
			c43.169,0,387.597,0,439.495,0C468.857,464.441,450.29,478.397,428.522,478.397z"/>
	</g>
</g>
<g>
</g>
<g>
</g>
<g>
</g>
<g>
</g>
<g>
</g>
<g>
</g>
<g>
</g>
<g>
</g>
<g>
</g>
<g>
</g>
<g>
</g>
<g>
</g>
<g>
</g>
<g>
</g>
<g>
</g>
</svg>
