<?xml version="1.0" encoding="iso-8859-1"?>
<!-- Uploaded to: SVG Repo, www.svgrepo.com, Generator: SVG Repo Mixer Tools -->
<svg style="background:none;fill:#ab897044" height="800px" width="800px" version="1.1" id="Layer_1" xmlns="http://www.w3.org/2000/svg" xmlns:xlink="http://www.w3.org/1999/xlink" 
	 viewBox="0 0 512.002 512.002" xml:space="preserve">
<g>
	<g>
		<path d="M319.398,142.217c-25.837-13.986-55.974-18.378-84.862-12.36c-5.648,1.176-9.274,6.709-8.098,12.358
			c1.175,5.648,6.7,9.273,12.358,8.098c24.058-5.013,49.153-1.361,70.655,10.279c1.582,0.856,3.285,1.262,4.965,1.262
			c3.712,0,7.306-1.983,9.196-5.475C326.358,151.304,324.471,144.963,319.398,142.217z"/>
	</g>
</g>
<g>
	<g>
		<path d="M342.257,160.691h-0.138c-5.769,0-10.447,4.677-10.447,10.447s4.678,10.447,10.447,10.447h0.138
			c5.769,0,10.447-4.677,10.447-10.447S348.026,160.691,342.257,160.691z"/>
	</g>
</g>
<g>
	<g>
		<path d="M492.13,203.645c-12.536-12.537-29.199-19.588-46.921-19.854c-12.433-0.189-24.44,2.985-34.957,9.076
			c-8.041-20.347-20.238-39.022-36.174-54.957c-15.935-15.935-34.61-28.133-54.957-36.174c6.091-10.517,9.264-22.524,9.077-34.957
			c-0.267-17.722-7.318-34.385-19.854-46.922c-26.453-26.45-69.492-26.45-95.943,0c-22.043,22.044-25.866,55.353-11.111,81.326
			c-20.889,8.03-40.05,20.427-56.349,36.725c-25.141,25.141-41.015,56.998-45.903,92.123c-4.726,33.971,1.585,69.226,17.772,99.267
			c2.738,5.078,9.073,6.978,14.153,4.242s6.979-9.073,4.243-14.153c-29.316-54.405-19.237-122.956,24.511-166.703
			c26.656-26.656,62.096-41.336,99.793-41.336c37.697,0,73.137,14.68,99.792,41.336c26.657,26.656,41.337,62.096,41.337,99.793
			c0,37.697-14.681,73.137-41.337,99.793c-43.749,43.75-112.302,53.825-166.705,24.509c-5.083-2.737-11.416-0.838-14.154,4.242
			c-2.736,5.079-0.838,11.416,4.242,14.153c23.537,12.683,50.27,19.303,77.082,19.303c7.411,0,14.83-0.506,22.187-1.529
			c35.126-4.887,66.982-20.761,92.124-45.902c16.298-16.298,28.695-35.457,36.724-56.344c10.348,5.879,21.857,8.818,33.359,8.818
			c17.366,0,34.708-6.674,47.969-19.934c12.814-12.814,19.871-29.85,19.871-47.971S504.943,216.457,492.13,203.645z M298.522,95.161
			c-12.613-3.104-25.689-4.706-39.012-4.706c-12.805,0-25.382,1.487-37.54,4.358c-13.018-18.417-11.179-43.794,5.206-60.179
			c18.304-18.304,48.089-18.304,66.392,0C310.112,51.178,311.845,76.709,298.522,95.161z M477.355,284.812
			c-16.385,16.385-41.762,18.225-60.179,5.208c2.871-12.159,4.359-24.735,4.359-37.541c0-13.323-1.604-26.399-4.708-39.013
			c18.452-13.322,43.983-11.591,60.527,4.954c8.867,8.867,13.751,20.655,13.751,33.195
			C491.104,264.154,486.222,275.944,477.355,284.812z"/>
	</g>
</g>
<g>
	<g>
		<path d="M237.601,188.835c-2.73-2.732-6.36-4.235-10.223-4.236c-0.001,0-0.002,0-0.003,0c-3.861,0-7.493,1.503-10.224,4.234
			c-5.637,5.637-5.637,14.81,0,20.449c2.731,2.731,6.361,4.234,10.223,4.234c0,0,0.001,0,0.002,0
			c3.861-0.001,7.492-1.504,10.223-4.235C243.237,203.644,243.237,194.471,237.601,188.835z"/>
	</g>
</g>
<g>
	<g>
		<path d="M323.148,274.38c-2.73-2.732-6.362-4.235-10.225-4.235c-3.861,0.001-7.493,1.504-10.224,4.235
			c-5.637,5.637-5.638,14.81-0.001,20.448c2.73,2.73,6.361,4.234,10.223,4.234c0.001,0,0.001,0,0.002,0
			c3.861,0,7.493-1.503,10.224-4.235C328.785,289.19,328.785,280.016,323.148,274.38z"/>
	</g>
</g>
<g>
	<g>
		<path d="M243.601,313.043c-3.197-0.107-6.203-1.411-8.465-3.673c-4.861-4.861-4.893-12.743-0.11-17.651
			c0.036-0.036,0.073-0.068,0.109-0.103c0.003-0.003,0.007-0.006,0.01-0.009l7.868-7.868c4.08-4.08,4.08-10.695,0-14.776
			c-4.081-4.08-10.694-4.08-14.776,0l-7.692,7.692c-0.061,0.057-0.125,0.108-0.185,0.167c-0.042,0.042-0.079,0.086-0.121,0.127
			c-2.358,2.295-5.458,3.563-8.756,3.563c-3.357,0-6.512-1.307-8.885-3.681c-2.263-2.263-3.568-5.269-3.674-8.464
			c-0.191-5.767-5.04-10.271-10.787-10.095c-5.768,0.191-10.287,5.021-10.095,10.788c0.282,8.513,3.756,16.521,9.781,22.546
			c6.111,6.111,14.17,9.557,22.775,9.78c0.22,8.266,3.47,16.465,9.763,22.759c6.026,6.025,14.033,9.499,22.546,9.782
			c0.118,0.003,0.236,0.005,0.353,0.005c5.609,0,10.248-4.452,10.435-10.099C253.887,318.065,249.369,313.234,243.601,313.043z"/>
	</g>
</g>
<g>
	<g>
		<path d="M159.724,352.257c-4.082-4.08-10.695-4.08-14.776,0l-0.098,0.098c-4.08,4.081-4.08,10.696,0,14.776
			c2.04,2.04,4.713,3.06,7.387,3.06s5.347-1.02,7.388-3.06l0.098-0.098C163.804,362.952,163.804,356.337,159.724,352.257z"/>
	</g>
</g>
<g>
	<g>
		<path d="M135.442,376.539c-4.082-4.08-10.695-4.08-14.776,0L3.06,494.147c-4.08,4.081-4.08,10.696,0,14.776
			c2.04,2.04,4.713,3.06,7.387,3.06s5.347-1.021,7.388-3.06l117.607-117.609C139.522,387.234,139.522,380.618,135.442,376.539z"/>
	</g>
</g>
</svg>