<?xml version="1.0" encoding="iso-8859-1"?>
<!-- Uploaded to: SVG Repo, www.svgrepo.com, Generator: SVG Repo Mixer Tools -->
<svg style="background:none;fill:#ab897044" height="800px" width="800px" version="1.1" id="Layer_1" xmlns="http://www.w3.org/2000/svg" xmlns:xlink="http://www.w3.org/1999/xlink" 
	 viewBox="0 0 512 512" xml:space="preserve">
<g>
	<g>
		<path d="M256,140.017c-25.322,0-49.383,8.016-69.58,23.181c-19.524,14.66-34.198,35.525-41.324,58.753
			c-1.692,5.517,1.41,11.362,6.926,13.054c1.022,0.313,2.053,0.462,3.068,0.462c4.47,0,8.607-2.892,9.987-7.387
			c12.321-40.173,48.86-67.164,90.924-67.164c5.77-0.001,10.448-4.679,10.448-10.45C266.449,144.696,261.77,140.017,256,140.017z"/>
	</g>
</g>
<g>
	<g>
		<path d="M150.466,245.548c-5.77,0-10.449,4.679-10.449,10.449v0.137c0,5.77,4.679,10.449,10.449,10.449
			c5.77,0,10.449-4.679,10.449-10.449v-0.137C160.915,250.227,156.237,245.548,150.466,245.548z"/>
	</g>
</g>
<g>
	<g>
		<path d="M359.978,276.996c-5.523-1.695-11.361,1.41-13.054,6.926c-12.321,40.173-48.86,67.164-90.924,67.164
			c-5.77,0-10.449,4.679-10.449,10.449s4.679,10.449,10.449,10.449c25.322,0,49.383-8.016,69.58-23.181
			c19.524-14.66,34.198-35.525,41.324-58.753C368.595,284.533,365.494,278.688,359.978,276.996z"/>
	</g>
</g>
<g>
	<g>
		<path d="M361.535,245.418c-5.77,0-10.449,4.679-10.449,10.449v0.137c0,5.77,4.679,10.449,10.449,10.449
			c5.77,0,10.449-4.679,10.449-10.449v-0.137C371.984,250.097,367.305,245.418,361.535,245.418z"/>
	</g>
</g>
<g>
	<g>
		<path d="M508.909,127.181c-9.698-9.698-19.557-11.259-27.479-12.515c-6.564-1.041-10.902-1.727-15.625-6.452
			c-4.915-4.915-5.763-9.803-6.934-16.567c-1.354-7.816-3.039-17.543-12.032-26.536c-9.022-9.022-18.891-10.797-26.82-12.224
			c-6.751-1.214-11.629-2.092-16.27-6.73c-4.643-4.648-5.521-9.524-6.735-16.274c-1.427-7.931-3.203-17.799-12.224-26.821
			c-2.545-2.544-6.219-3.603-9.726-2.795c-3.507,0.805-6.353,3.356-7.534,6.755l-38.353,110.412
			C307.32,105.845,282.416,99.266,256,99.266c-86.423,0-156.734,70.311-156.734,156.734c0,26.415,6.579,51.319,18.168,73.176
			L7.021,367.529c-3.399,1.181-5.936,4.042-6.741,7.549c-0.805,3.508,0.266,7.196,2.811,9.741
			c9.698,9.698,19.557,11.259,27.479,12.515c6.564,1.041,10.902,1.727,15.625,6.452c4.915,4.915,5.763,9.803,6.934,16.567
			c1.354,7.816,3.039,17.543,12.032,26.536c9.022,9.022,18.891,10.797,26.82,12.224c6.751,1.214,11.629,2.092,16.27,6.73
			c4.643,4.648,5.521,9.524,6.735,16.274c1.427,7.931,3.203,17.799,12.224,26.821c1.981,1.981,4.649,3.06,7.388,3.06
			c0.777,0,1.561-0.087,2.336-0.264c3.507-0.806,6.353-3.357,7.534-6.756l38.353-110.412c21.857,11.59,46.761,18.168,73.176,18.168
			c86.423,0,156.734-70.311,156.734-156.734c0-26.415-6.579-51.319-18.168-73.176l110.412-38.353
			c3.399-1.181,5.936-4.042,6.741-7.549C512.524,133.415,511.453,129.726,508.909,127.181z M400.832,69.17
			c5.472,2.473,10.812,3.444,15.486,4.286c6.591,1.186,11.353,2.043,15.743,6.433c4.11,4.11,4.999,8.29,6.217,15.324
			c0.835,4.822,1.807,10.348,4.469,16.054l-75.488,34.451c-0.124-0.125-0.246-0.254-0.371-0.379L400.832,69.17z M377.916,40.808
			c1.139,4.6,2.911,9.517,6.266,14.385l-33.771,75.783c-1.003-0.76-2.016-1.507-3.038-2.242L377.916,40.808z M55.206,384.171
			c-4.987-3.466-9.921-5.18-14.494-6.221l88.022-30.576c0.586,0.814,1.174,1.627,1.776,2.429L55.206,384.171z M111.168,442.831
			c-5.472-2.473-10.812-3.444-15.486-4.286c-6.59-1.186-11.353-2.043-15.743-6.433c-4.11-4.11-4.999-8.29-6.217-15.324
			c-0.835-4.822-1.807-10.348-4.469-16.054l75.488-34.451c0.124,0.125,0.246,0.254,0.371,0.379L111.168,442.831z M134.085,471.192
			c-1.139-4.6-2.911-9.517-6.266-14.385l33.771-75.783c1.003,0.76,2.016,1.507,3.037,2.242L134.085,471.192z M256,391.837
			c-74.901,0-135.836-60.935-135.836-135.836S181.099,120.164,256,120.164S391.837,181.099,391.837,256S330.901,391.837,256,391.837
			z M383.266,164.626c-0.586-0.814-1.174-1.627-1.776-2.429l75.305-34.367c4.988,3.465,9.922,5.18,14.495,6.221L383.266,164.626z"/>
	</g>
</g>
</svg>