<?xml version="1.0" encoding="iso-8859-1"?>
<!-- Generator: Adobe Illustrator 19.0.0, SVG Export Plug-In . SVG Version: 6.00 Build 0)  -->
<svg version="1.1" id="Layer_1" xmlns="http://www.w3.org/2000/svg" xmlns:xlink="http://www.w3.org/1999/xlink" x="0px" y="0px"
	 viewBox="0 0 496 496" style="background:white;fill:#729da1" xml:space="preserve">
<g>
	<g>
		<g>
			<path d="M144,336c-13.232,0-24,10.768-24,24s10.768,24,24,24s24-10.768,24-24S157.232,336,144,336z M144,368
				c-4.416,0-8-3.584-8-8c0-4.416,3.584-8,8-8s8,3.584,8,8C152,364.416,148.416,368,144,368z"/>
			<path d="M352,384c13.232,0,24-10.768,24-24s-10.768-24-24-24s-24,10.768-24,24S338.768,384,352,384z M352,352
				c4.416,0,8,3.584,8,8c0,4.416-3.584,8-8,8c-4.416,0-8-3.584-8-8C344,355.584,347.584,352,352,352z"/>
			<path d="M482.056,145.256C491.048,136.264,496,124.312,496,111.6c0-26.248-21.352-47.6-47.6-47.6
				c-12.128,0-23.56,4.512-32.4,12.736C407.16,68.512,395.728,64,383.6,64c-26.248,0-47.6,21.352-47.6,47.6
				c0,12.712,4.952,24.664,13.944,33.656L408,203.312v18.552c0,8.224,2.416,16.184,6.96,22.992l4.768,7.16
				c2.792,4.184,4.272,9.064,4.272,14.12c0,6.808-2.648,13.2-7.464,18.016l-26.512,26.512c-4.192-2.784-8.928-4.816-14.024-5.856
				V248c0-39.704-32.296-72-72-72H192c-39.704,0-72,32.296-72,72v56.808c-6.664,1.36-12.608,4.512-17.624,8.736L78.952,285.44
				c-4.48-5.376-6.952-12.2-6.952-19.192c0-9.16,4.104-17.688,11.248-23.408l12.32-9.864C106.016,224.64,112,212.184,112,198.816
				c0-11.688-4.552-22.68-12.824-30.944l-3.048-3.048C90.888,159.576,88,152.6,88,145.184v-5.872l58.056-58.056
				C155.048,72.264,160,60.312,160,47.6C160,21.352,138.648,0,112.4,0C100.272,0,88.832,4.512,80,12.736
				C71.16,4.512,59.728,0,47.6,0C21.352,0,0,21.352,0,47.6c0,12.712,4.952,24.664,13.944,33.656L72,139.312v5.872
				c0,11.688,4.552,22.68,12.816,30.944l3.048,3.048C93.112,184.424,96,191.4,96,198.816c0,8.48-3.8,16.384-10.424,21.68
				l-12.328,9.856C62.288,239.128,56,252.2,56,266.248c0,10.728,3.784,21.176,10.656,29.44l25.6,30.72
				C89.616,331.744,88,337.664,88,344v72c-13.232,0-24,10.768-24,24s10.768,24,24,24h16c0,17.648,14.352,32,32,32s32-14.352,32-32
				h160c0,17.648,14.352,32,32,32s32-14.352,32-32h16c13.232,0,24-10.768,24-24s-10.768-24-24-24v-72
				c0-8.136-2.472-15.696-6.664-22.024l26.512-26.52c7.84-7.832,12.152-18.248,12.152-29.32c0-8.224-2.416-16.184-6.96-22.992
				l-4.768-7.16C425.48,231.8,424,226.92,424,221.864v-18.552L482.056,145.256z M80,124.688L25.256,69.944
				C19.288,63.976,16,56.04,16,47.6C16,30.184,30.176,16,47.6,16c8.44,0,16.376,3.288,22.344,9.256L80,35.312l10.056-10.056
				C96.024,19.288,103.96,16,112.4,16c17.416,0,31.6,14.184,31.6,31.6c0,8.44-3.288,16.376-9.256,22.344L80,124.688z M392,344v72
				h-88v-96h64C381.232,320,392,330.768,392,344z M136,248c0-30.872,25.128-56,56-56h112c30.872,0,56,25.128,56,56v56h-56
				c0-8.824-7.184-16-16-16h-80c-8.824,0-16,7.176-16,16h-56V248z M288,336v16h-80v-16h48v-16h-48v-16h80v16h-16v16H288z M208,384
				v-16h80v16H208z M288,400v16h-80v-16H288z M104,344c0-13.232,10.768-24,24-24h64v96h-88V344z M136,480c-8.824,0-16-7.176-16-16
				h32C152,472.824,144.816,480,136,480z M360,480c-8.824,0-16-7.176-16-16h32C376,472.824,368.816,480,360,480z M408,432
				c4.416,0,8,3.584,8,8c0,4.416-3.584,8-8,8H88c-4.416,0-8-3.584-8-8c0-4.416,3.584-8,8-8H408z M416,188.688l-54.744-54.744
				C355.288,127.976,352,120.04,352,111.6c0-17.424,14.176-31.6,31.6-31.6c8.44,0,16.376,3.288,22.344,9.256L416,99.312
				l10.056-10.056C432.024,83.288,439.96,80,448.4,80c17.424,0,31.6,14.184,31.6,31.6c0,8.44-3.288,16.376-9.256,22.344L416,188.688
				z"/>
			<rect x="427.99" y="111.728" transform="matrix(-0.7071 -0.7071 0.7071 -0.7071 645.28 547.2999)" width="16" height="56.559"/>
			<rect x="91.99" y="47.724" transform="matrix(-0.7071 -0.7071 0.7071 -0.7071 116.9504 200.449)" width="16" height="56.559"/>
			<rect x="152" y="272" width="16" height="16"/>
			<path d="M200,224v-16h-8c-22.056,0-40,17.944-40,40v8h16v-8c0-13.232,10.768-24,24-24H200z"/>
		</g>
	</g>
</g>
<g>
</g>
<g>
</g>
<g>
</g>
<g>
</g>
<g>
</g>
<g>
</g>
<g>
</g>
<g>
</g>
<g>
</g>
<g>
</g>
<g>
</g>
<g>
</g>
<g>
</g>
<g>
</g>
<g>
</g>
</svg>
