<?xml version="1.0" encoding="iso-8859-1"?>
<!-- Generator: Adobe Illustrator 19.0.0, SVG Export Plug-In . SVG Version: 6.00 Build 0)  -->
<svg version="1.1" id="Capa_1" xmlns="http://www.w3.org/2000/svg" xmlns:xlink="http://www.w3.org/1999/xlink" x="0px" y="0px"
	 viewBox="0 0 490 490" style="background:white;fill:#729da1" xml:space="preserve">
<g>
	<path d="M335.568,259.174v-89.876L260,111.697V59.527h28.04v-30H260V0h-30v29.527h-28.04v30H230v52.169l-75.568,57.601v89.876
		l-113.44,44.561V490h408.018V303.735L335.568,259.174z M268.987,460h-47.975v-94.012C221.013,352.761,231.773,342,245,342
		s23.987,10.761,23.987,23.987V460z M419.009,460h-45.011v-94.012h-30V460h-45.011v-94.012C298.987,336.219,274.769,312,245,312
		s-53.987,24.219-53.987,53.987V460h-45.011v-94.012h-30V460H70.991V324.182l113.44-44.561v-95.469L245,137.985l60.568,46.167
		v95.469l113.44,44.561V460z"/>
	<rect x="230" y="193.275" width="30" height="59.572"/>
</g>
<g>
</g>
<g>
</g>
<g>
</g>
<g>
</g>
<g>
</g>
<g>
</g>
<g>
</g>
<g>
</g>
<g>
</g>
<g>
</g>
<g>
</g>
<g>
</g>
<g>
</g>
<g>
</g>
<g>
</g>
</svg>
