<?xml version="1.0" encoding="utf-8"?>
<!-- Generator: Adobe Illustrator 24.0.2, SVG Export Plug-In . SVG Version: 6.00 Build 0)  -->
<svg version="1.1" id="Слой_1" xmlns="http://www.w3.org/2000/svg" xmlns:xlink="http://www.w3.org/1999/xlink" x="0px" y="0px"
	 viewBox="0 0 40 40" style="enable-background:new 0 0 40 40;" xml:space="preserve">
<style type="text/css">
	.st0{fill:#FFFFFF;}
</style>
<path class="st0" d="M22.67,40h-6.41c-1.07,0-1.94-0.87-1.94-1.94V23.61h-3.74c-1.07,0-1.94-0.87-1.94-1.94v-6.19
	c0-1.07,0.87-1.94,1.94-1.94h3.74v-3.1c0-3.07,0.97-5.69,2.79-7.56C18.95,0.99,21.51,0,24.53,0l4.89,0.01
	c1.07,0,1.94,0.87,1.94,1.94V7.7c0,1.07-0.87,1.94-1.94,1.94l-3.29,0c-1,0-1.26,0.2-1.31,0.26c-0.09,0.1-0.2,0.39-0.2,1.19v2.45
	h4.55c0.34,0,0.67,0.08,0.96,0.24c0.62,0.34,1,0.99,1,1.7l0,6.19c0,1.07-0.87,1.94-1.94,1.94h-4.57v14.45
	C24.61,39.13,23.74,40,22.67,40z M16.67,37.66h5.6V22.56c0-0.71,0.58-1.3,1.3-1.3h5.21l0-5.38h-5.22c-0.71,0-1.3-0.58-1.3-1.3v-3.5
	c0-0.92,0.09-1.96,0.78-2.74c0.84-0.95,2.15-1.06,3.07-1.06l2.88,0V2.35l-4.48-0.01c-4.85,0-7.86,3.1-7.86,8.09v4.15
	c0,0.71-0.58,1.3-1.3,1.3h-4.38v5.38h4.38c0.71,0,1.3,0.58,1.3,1.3V37.66z"/>
</svg>
