<?xml version="1.0" encoding="utf-8"?>
<!-- Generator: Adobe Illustrator 24.0.2, SVG Export Plug-In . SVG Version: 6.00 Build 0)  -->
<svg version="1.1" id="Слой_1" xmlns="http://www.w3.org/2000/svg" xmlns:xlink="http://www.w3.org/1999/xlink" x="0px" y="0px"
	 viewBox="0 0 40 40" style="enable-background:new 0 0 40 40;" xml:space="preserve">
<style type="text/css">
	.st0{fill:#FFFFFF;}
</style>
<path class="st0" d="M28.38,0H11.62C5.21,0,0,5.21,0,11.62v16.76C0,34.79,5.21,40,11.62,40h16.76C34.79,40,40,34.79,40,28.38V11.62
	C40,5.21,34.79,0,28.38,0z M36.88,28.38c0,4.68-3.81,8.49-8.49,8.49H11.62c-4.68,0-8.49-3.81-8.49-8.49V11.62
	c0-4.68,3.81-8.49,8.49-8.49h16.76c4.68,0,8.49,3.81,8.49,8.49V28.38z"/>
<path class="st0" d="M20,9.22C14.06,9.22,9.22,14.06,9.22,20c0,5.94,4.84,10.78,10.78,10.78c5.94,0,10.78-4.84,10.78-10.78
	C30.78,14.06,25.94,9.22,20,9.22z M20,27.66c-4.22,0-7.66-3.43-7.66-7.66c0-4.22,3.43-7.66,7.66-7.66c4.22,0,7.66,3.43,7.66,7.66
	C27.66,24.22,24.22,27.66,20,27.66z"/>
<path class="st0" d="M30.94,10.63c0.86,0,1.56-0.7,1.56-1.56S31.8,7.5,30.94,7.5c-0.86,0-1.56,0.7-1.56,1.56
	S30.07,10.63,30.94,10.63z"/>
</svg>
