<?xml version="1.0" encoding="iso-8859-1"?>
<!-- Uploaded to: SVG Repo, www.svgrepo.com, Generator: SVG Repo Mixer Tools -->
<svg version="1.1" id="Layer_1" xmlns="http://www.w3.org/2000/svg" xmlns:xlink="http://www.w3.org/1999/xlink" 
	 viewBox="0 0 512 512" xml:space="preserve">
<polygon style="fill:#9FC7D1;" points="300.944,168 329.752,168 333.752,152 308.944,152 "/>
<g>
	<path style="fill:#EEC97B;" d="M168,300.448c-73.032,0-132.448-59.416-132.448-132.448S94.968,35.552,168,35.552
		c63.32,0,116.328,44.688,129.328,104.16c1.464-2.264,3.936-3.712,6.672-3.712h12.48C301.608,66.992,239.456,16,168,16
		C84.184,16,16,84.184,16,168s68.184,152,152,152c16.4,0,32.44-2.728,47.824-7.832c3-9.008,6.768-17.664,11.32-25.84
		C209.32,295.28,189.272,300.448,168,300.448z"/>
	<path style="fill:#EEC97B;" d="M360,224c-74.992,0-136,61.008-136,136s61.008,136,136,136s136-61.008,136-136S434.992,224,360,224z
		 M360,480c-66.168,0-120-53.832-120-120s53.832-120,120-120s120,53.832,120,120S426.168,480,360,480z"/>
</g>
<g>
	<polygon style="fill:#9FC7D1;" points="331.472,184 312.96,184 345.352,207.136 	"/>
	<polygon style="fill:#9FC7D1;" points="369.752,152 350.248,152 346.248,168 373.752,168 	"/>
	<polygon style="fill:#9FC7D1;" points="419.056,168 411.056,152 386.248,152 390.248,168 	"/>
	<polygon style="fill:#9FC7D1;" points="388.528,184 374.648,207.136 407.04,184 	"/>
	<polygon style="fill:#9FC7D1;" points="369.872,184 350.128,184 360,200.448 	"/>
</g>
<g>
	<path style="fill:#3C4A53;" d="M395.032,212.24l41.616-29.728c3.2-2.288,4.264-6.568,2.504-10.088l-16-32
		C421.8,137.712,419.032,136,416,136h-83.232C317.656,58.032,248.12,0,168,0C75.36,0,0,75.36,0,168s75.36,168,168,168
		c14.616,0,28.992-1.92,42.944-5.608C209.04,339.976,208,349.864,208,360c0,83.816,68.184,152,152,152s152-68.184,152-152
		C512,288.264,461.984,228.12,395.032,212.24z M411.056,152l8,16h-28.808l-4-16H411.056z M388.528,184h18.512l-32.392,23.136
		L388.528,184z M350.248,152h19.504l4,16h-27.504L350.248,152z M369.872,184L360,200.448L350.128,184H369.872z M312.96,184h18.512
		l13.88,23.136L312.96,184z M324.968,212.24c-13.672,3.24-26.664,8.24-38.632,14.912c5.352-10.664,9.36-22.104,11.672-34.168
		L324.968,212.24z M333.752,152l-4,16h-28.808l8-16H333.752z M168,320c-83.816,0-152-68.184-152-152S84.184,16,168,16
		c71.456,0,133.608,50.992,148.48,120H304c-2.736,0-5.208,1.448-6.672,3.712C284.328,80.24,231.32,35.552,168,35.552
		C94.968,35.552,35.552,94.968,35.552,168S94.968,300.448,168,300.448c21.272,0,41.32-5.16,59.144-14.112
		c-4.552,8.176-8.32,16.832-11.32,25.84C200.44,317.272,184.4,320,168,320z M283.352,182.512l0.08,0.056
		c-7.208,57.344-56.168,101.88-115.432,101.88c-64.208,0-116.448-52.24-116.448-116.448S103.792,51.552,168,51.552
		c63.352,0,114.952,50.888,116.32,113.92l-3.472,6.944C279.088,175.944,280.152,180.224,283.352,182.512z M360,496
		c-74.992,0-136-61.008-136-136s61.008-136,136-136s136,61.008,136,136S434.992,496,360,496z"/>
	<path style="fill:#3C4A53;" d="M360,240c-66.168,0-120,53.832-120,120s53.832,120,120,120s120-53.832,120-120S426.168,240,360,240z
		 M360,464c-57.352,0-104-46.656-104-104s46.648-104,104-104c57.344,0,104,46.656,104,104S417.344,464,360,464z"/>
	<rect x="448" y="32" style="fill:#3C4A53;" width="16" height="32"/>
	<rect x="448" y="80" style="fill:#3C4A53;" width="16" height="16"/>
	<rect x="448" y="112" style="fill:#3C4A53;" width="16" height="32"/>
	<rect x="480" y="80" style="fill:#3C4A53;" width="32" height="16"/>
	<rect x="400" y="80" style="fill:#3C4A53;" width="32" height="16"/>
	<polygon style="fill:#3C4A53;" points="344,64 360,64 360,48 376,48 376,32 360,32 360,16 344,16 344,32 328,32 328,48 344,48 	"/>
	<rect x="144" y="352" style="fill:#3C4A53;" width="16" height="16"/>
	<rect x="176" y="352" style="fill:#3C4A53;" width="16" height="16"/>
	<rect x="112" y="352" style="fill:#3C4A53;" width="16" height="16"/>
</g>
</svg>